<svg width="800" height="520" viewBox="0 0 800 520" xmlns="http://www.w3.org/2000/svg">
  <defs>
    <linearGradient id="macTitleBar" x1="0" y1="0" x2="0" y2="1">
      <stop offset="0%" stop-color="#e8e8ed"/>
      <stop offset="100%" stop-color="#d5d5da"/>
    </linearGradient>
  </defs>
  <rect width="800" height="520" rx="12" fill="#fff" stroke="#c7c7cc" stroke-width="1"/>
  <rect width="800" height="36" rx="12" fill="url(#macTitleBar)"/>
  <rect y="24" width="800" height="12" fill="url(#macTitleBar)"/>
  <circle cx="20" cy="18" r="6" fill="#ff5f57"/>
  <circle cx="40" cy="18" r="6" fill="#febc2e"/>
  <circle cx="60" cy="18" r="6" fill="#28c840"/>
  <text x="400" y="23" fill="#1d1d1f" font-family="-apple-system,system-ui,sans-serif" font-size="13" font-weight="500" text-anchor="middle">Superheld — Dashboard</text>
  <rect x="0" y="36" width="200" height="484" fill="#f5f5f7"/>
  <line x1="200" y1="36" x2="200" y2="520" stroke="rgba(0,0,0,0.08)" stroke-width="1"/>
  <rect x="12" y="52" width="176" height="32" rx="8" fill="rgba(88,86,214,0.12)"/>
  <text x="40" y="73" fill="#5856d6" font-family="-apple-system,system-ui,sans-serif" font-size="13" font-weight="600">Dashboard</text>
  <circle cx="24" cy="68" r="4" fill="#5856d6"/>
  <text x="40" y="108" fill="#1d1d1f" font-family="-apple-system,system-ui,sans-serif" font-size="13">Geräte</text>
  <circle cx="24" cy="104" r="4" fill="rgba(0,0,0,0.2)"/>
  <text x="40" y="138" fill="#1d1d1f" font-family="-apple-system,system-ui,sans-serif" font-size="13">Regeln</text>
  <circle cx="24" cy="134" r="4" fill="rgba(0,0,0,0.2)"/>
  <text x="40" y="168" fill="#1d1d1f" font-family="-apple-system,system-ui,sans-serif" font-size="13">Familie</text>
  <circle cx="24" cy="164" r="4" fill="rgba(0,0,0,0.2)"/>
  <text x="40" y="198" fill="#1d1d1f" font-family="-apple-system,system-ui,sans-serif" font-size="13">Protokoll</text>
  <circle cx="24" cy="194" r="4" fill="rgba(0,0,0,0.2)"/>
  <text x="40" y="228" fill="#1d1d1f" font-family="-apple-system,system-ui,sans-serif" font-size="13">Einstellungen</text>
  <circle cx="24" cy="224" r="4" fill="rgba(0,0,0,0.2)"/>
  <rect x="12" y="470" width="176" height="36" rx="8" fill="rgba(52,199,89,0.08)"/>
  <circle cx="28" cy="488" r="5" fill="#34c759"/>
  <text x="40" y="492" fill="#34c759" font-family="-apple-system,system-ui,sans-serif" font-size="12" font-weight="500">Alle Systeme sicher</text>
  <rect x="220" y="52" width="170" height="90" rx="12" fill="#f5f5f7"/>
  <text x="240" y="78" fill="rgba(29,29,31,0.45)" font-family="-apple-system,system-ui,sans-serif" font-size="11" font-weight="500" letter-spacing="0.3">GERÄTE ONLINE</text>
  <text x="240" y="118" fill="#1d1d1f" font-family="-apple-system,system-ui,sans-serif" font-size="32" font-weight="700">5</text>
  <text x="270" y="118" fill="#34c759" font-family="-apple-system,system-ui,sans-serif" font-size="13" font-weight="500">/ 5</text>
  <rect x="405" y="52" width="170" height="90" rx="12" fill="#f5f5f7"/>
  <text x="425" y="78" fill="rgba(29,29,31,0.45)" font-family="-apple-system,system-ui,sans-serif" font-size="11" font-weight="500" letter-spacing="0.3">BLOCKIERT HEUTE</text>
  <text x="425" y="118" fill="#1d1d1f" font-family="-apple-system,system-ui,sans-serif" font-size="32" font-weight="700">847</text>
  <rect x="590" y="52" width="190" height="90" rx="12" fill="#f5f5f7"/>
  <text x="610" y="78" fill="rgba(29,29,31,0.45)" font-family="-apple-system,system-ui,sans-serif" font-size="11" font-weight="500" letter-spacing="0.3">SCHUTZSTATUS</text>
  <text x="610" y="118" fill="#34c759" font-family="-apple-system,system-ui,sans-serif" font-size="32" font-weight="700">100%</text>
  <rect x="220" y="160" width="560" height="200" rx="12" fill="#f5f5f7"/>
  <text x="240" y="188" fill="#1d1d1f" font-family="-apple-system,system-ui,sans-serif" font-size="14" font-weight="600">Bedrohungen (7 Tage)</text>
  <rect x="270" y="310" width="50" height="30" rx="4" fill="rgba(88,86,214,0.3)"/>
  <rect x="340" y="280" width="50" height="60" rx="4" fill="rgba(88,86,214,0.4)"/>
  <rect x="410" y="260" width="50" height="80" rx="4" fill="rgba(88,86,214,0.5)"/>
  <rect x="480" y="230" width="50" height="110" rx="4" fill="rgba(88,86,214,0.6)"/>
  <rect x="550" y="270" width="50" height="70" rx="4" fill="rgba(88,86,214,0.5)"/>
  <rect x="620" y="210" width="50" height="130" rx="4" fill="rgba(88,86,214,0.7)"/>
  <rect x="690" y="240" width="50" height="100" rx="4" fill="#5856d6"/>
  <text x="295" y="352" fill="rgba(29,29,31,0.35)" font-family="-apple-system,system-ui,sans-serif" font-size="10" text-anchor="middle">Mo</text>
  <text x="365" y="352" fill="rgba(29,29,31,0.35)" font-family="-apple-system,system-ui,sans-serif" font-size="10" text-anchor="middle">Di</text>
  <text x="435" y="352" fill="rgba(29,29,31,0.35)" font-family="-apple-system,system-ui,sans-serif" font-size="10" text-anchor="middle">Mi</text>
  <text x="505" y="352" fill="rgba(29,29,31,0.35)" font-family="-apple-system,system-ui,sans-serif" font-size="10" text-anchor="middle">Do</text>
  <text x="575" y="352" fill="rgba(29,29,31,0.35)" font-family="-apple-system,system-ui,sans-serif" font-size="10" text-anchor="middle">Fr</text>
  <text x="645" y="352" fill="rgba(29,29,31,0.35)" font-family="-apple-system,system-ui,sans-serif" font-size="10" text-anchor="middle">Sa</text>
  <text x="715" y="352" fill="rgba(29,29,31,0.35)" font-family="-apple-system,system-ui,sans-serif" font-size="10" text-anchor="middle">So</text>
  <rect x="220" y="380" width="560" height="130" rx="12" fill="#f5f5f7"/>
  <text x="240" y="408" fill="#1d1d1f" font-family="-apple-system,system-ui,sans-serif" font-size="14" font-weight="600">Geräte</text>
  <circle cx="248" cy="436" r="5" fill="#34c759"/>
  <text x="262" y="440" fill="#1d1d1f" font-family="-apple-system,system-ui,sans-serif" font-size="13">iPhone 15 Pro</text>
  <text x="520" y="440" fill="rgba(29,29,31,0.4)" font-family="-apple-system,system-ui,sans-serif" font-size="12">iOS 18.3</text>
  <text x="680" y="440" fill="#34c759" font-family="-apple-system,system-ui,sans-serif" font-size="12" font-weight="500">Sicher</text>
  <circle cx="248" cy="462" r="5" fill="#34c759"/>
  <text x="262" y="466" fill="#1d1d1f" font-family="-apple-system,system-ui,sans-serif" font-size="13">MacBook Pro</text>
  <text x="520" y="466" fill="rgba(29,29,31,0.4)" font-family="-apple-system,system-ui,sans-serif" font-size="12">macOS 15.2</text>
  <text x="680" y="466" fill="#34c759" font-family="-apple-system,system-ui,sans-serif" font-size="12" font-weight="500">Sicher</text>
  <circle cx="248" cy="488" r="5" fill="#34c759"/>
  <text x="262" y="492" fill="#1d1d1f" font-family="-apple-system,system-ui,sans-serif" font-size="13">Galaxy S24</text>
  <text x="520" y="492" fill="rgba(29,29,31,0.4)" font-family="-apple-system,system-ui,sans-serif" font-size="12">Android 15</text>
  <text x="680" y="492" fill="#34c759" font-family="-apple-system,system-ui,sans-serif" font-size="12" font-weight="500">Sicher</text>
</svg>
