<svg width="360" height="720" viewBox="0 0 360 720" xmlns="http://www.w3.org/2000/svg">
  <defs>
    <linearGradient id="iosBg" x1="0" y1="0" x2="0" y2="1">
      <stop offset="0%" stop-color="#f8f9fa"/>
      <stop offset="100%" stop-color="#fff"/>
    </linearGradient>
    <clipPath id="iosClip">
      <rect x="12" y="12" width="336" height="696" rx="28"/>
    </clipPath>
  </defs>
  <rect width="360" height="720" rx="40" fill="#e8e8ed" stroke="#d1d1d6" stroke-width="2"/>
  <g clip-path="url(#iosClip)">
    <rect x="12" y="12" width="336" height="696" fill="url(#iosBg)"/>
    <rect x="12" y="12" width="336" height="44" fill="rgba(248,249,250,0.9)"/>
    <text x="32" y="40" fill="#1d1d1f" font-family="-apple-system,system-ui,sans-serif" font-size="14" font-weight="600">9:41</text>
    <rect x="132" y="16" width="96" height="28" rx="14" fill="#000"/>
    <text x="30" y="86" fill="#1d1d1f" font-family="-apple-system,system-ui,sans-serif" font-size="28" font-weight="700" letter-spacing="-0.5">Einstellungen</text>
    <rect x="20" y="108" width="320" height="1" fill="rgba(0,0,0,0.06)"/>
    <rect x="20" y="120" width="320" height="56" rx="14" fill="rgba(0,0,0,0.02)" stroke="rgba(0,0,0,0.04)" stroke-width="1"/>
    <circle cx="46" cy="148" r="14" fill="rgba(52,199,89,0.12)"/>
    <text x="46" y="153" fill="#34c759" font-family="-apple-system,system-ui,sans-serif" font-size="14" text-anchor="middle" font-weight="700">V</text>
    <text x="70" y="144" fill="#1d1d1f" font-family="-apple-system,system-ui,sans-serif" font-size="15" font-weight="500">VPN</text>
    <text x="70" y="160" fill="rgba(29,29,31,0.45)" font-family="-apple-system,system-ui,sans-serif" font-size="12">Verbunden</text>
    <rect x="280" y="138" width="42" height="22" rx="11" fill="#34c759"/>
    <circle cx="310" cy="149" r="9" fill="#fff"/>
    <rect x="20" y="186" width="320" height="56" rx="14" fill="rgba(0,0,0,0.02)" stroke="rgba(0,0,0,0.04)" stroke-width="1"/>
    <circle cx="46" cy="214" r="14" fill="rgba(88,86,214,0.12)"/>
    <text x="46" y="219" fill="#5856d6" font-family="-apple-system,system-ui,sans-serif" font-size="14" text-anchor="middle" font-weight="700">W</text>
    <text x="70" y="210" fill="#1d1d1f" font-family="-apple-system,system-ui,sans-serif" font-size="15" font-weight="500">Webfilter</text>
    <text x="70" y="226" fill="rgba(29,29,31,0.45)" font-family="-apple-system,system-ui,sans-serif" font-size="12">2.418 Bedrohungen blockiert</text>
    <rect x="280" y="204" width="42" height="22" rx="11" fill="#34c759"/>
    <circle cx="310" cy="215" r="9" fill="#fff"/>
    <rect x="20" y="252" width="320" height="56" rx="14" fill="rgba(0,0,0,0.02)" stroke="rgba(0,0,0,0.04)" stroke-width="1"/>
    <circle cx="46" cy="280" r="14" fill="rgba(255,149,0,0.12)"/>
    <text x="46" y="285" fill="#ff9500" font-family="-apple-system,system-ui,sans-serif" font-size="14" text-anchor="middle" font-weight="700">T</text>
    <text x="70" y="276" fill="#1d1d1f" font-family="-apple-system,system-ui,sans-serif" font-size="15" font-weight="500">Tracking-Schutz</text>
    <text x="70" y="292" fill="rgba(29,29,31,0.45)" font-family="-apple-system,system-ui,sans-serif" font-size="12">847 Tracker gestoppt</text>
    <rect x="280" y="270" width="42" height="22" rx="11" fill="#34c759"/>
    <circle cx="310" cy="281" r="9" fill="#fff"/>
    <rect x="20" y="318" width="320" height="56" rx="14" fill="rgba(0,0,0,0.02)" stroke="rgba(0,0,0,0.04)" stroke-width="1"/>
    <circle cx="46" cy="346" r="14" fill="rgba(0,122,255,0.12)"/>
    <text x="46" y="351" fill="#007aff" font-family="-apple-system,system-ui,sans-serif" font-size="14" text-anchor="middle" font-weight="700">Z</text>
    <text x="70" y="342" fill="#1d1d1f" font-family="-apple-system,system-ui,sans-serif" font-size="15" font-weight="500">Zeitlimit</text>
    <text x="70" y="358" fill="rgba(29,29,31,0.45)" font-family="-apple-system,system-ui,sans-serif" font-size="12">2h / Tag</text>
    <text x="328" y="350" fill="rgba(29,29,31,0.3)" font-family="-apple-system,system-ui,sans-serif" font-size="18" text-anchor="end">&#x203A;</text>
    <text x="30" y="412" fill="rgba(29,29,31,0.4)" font-family="-apple-system,system-ui,sans-serif" font-size="12" font-weight="500" letter-spacing="0.3">FAMILIE</text>
    <rect x="20" y="424" width="320" height="56" rx="14" fill="rgba(0,0,0,0.02)" stroke="rgba(0,0,0,0.04)" stroke-width="1"/>
    <circle cx="46" cy="452" r="14" fill="rgba(175,82,222,0.12)"/>
    <text x="46" y="457" fill="#af52de" font-family="-apple-system,system-ui,sans-serif" font-size="14" text-anchor="middle" font-weight="700">K</text>
    <text x="70" y="448" fill="#1d1d1f" font-family="-apple-system,system-ui,sans-serif" font-size="15" font-weight="500">Kindersicherung</text>
    <text x="70" y="464" fill="rgba(29,29,31,0.45)" font-family="-apple-system,system-ui,sans-serif" font-size="12">3 Profile aktiv</text>
    <text x="328" y="456" fill="rgba(29,29,31,0.3)" font-family="-apple-system,system-ui,sans-serif" font-size="18" text-anchor="end">&#x203A;</text>
    <rect x="20" y="490" width="320" height="56" rx="14" fill="rgba(0,0,0,0.02)" stroke="rgba(0,0,0,0.04)" stroke-width="1"/>
    <circle cx="46" cy="518" r="14" fill="rgba(255,59,48,0.12)"/>
    <text x="46" y="523" fill="#ff3b30" font-family="-apple-system,system-ui,sans-serif" font-size="14" text-anchor="middle" font-weight="700">F</text>
    <text x="70" y="514" fill="#1d1d1f" font-family="-apple-system,system-ui,sans-serif" font-size="15" font-weight="500">Freigaben</text>
    <text x="70" y="530" fill="rgba(29,29,31,0.45)" font-family="-apple-system,system-ui,sans-serif" font-size="12">2 ausstehend</text>
    <rect x="302" y="510" width="22" height="18" rx="9" fill="#ff3b30"/>
    <text x="313" y="523" fill="#fff" font-family="-apple-system,system-ui,sans-serif" font-size="11" font-weight="600" text-anchor="middle">2</text>
    <text x="30" y="580" fill="rgba(29,29,31,0.4)" font-family="-apple-system,system-ui,sans-serif" font-size="12" font-weight="500" letter-spacing="0.3">GERÄTE</text>
    <rect x="20" y="592" width="320" height="56" rx="14" fill="rgba(0,0,0,0.02)" stroke="rgba(0,0,0,0.04)" stroke-width="1"/>
    <circle cx="46" cy="620" r="14" fill="rgba(0,122,255,0.12)"/>
    <text x="46" y="625" fill="#007aff" font-family="-apple-system,system-ui,sans-serif" font-size="14" text-anchor="middle" font-weight="700">5</text>
    <text x="70" y="616" fill="#1d1d1f" font-family="-apple-system,system-ui,sans-serif" font-size="15" font-weight="500">Meine Geräte</text>
    <text x="70" y="632" fill="rgba(29,29,31,0.45)" font-family="-apple-system,system-ui,sans-serif" font-size="12">5 online</text>
    <text x="328" y="624" fill="rgba(29,29,31,0.3)" font-family="-apple-system,system-ui,sans-serif" font-size="18" text-anchor="end">&#x203A;</text>
    <rect x="12" y="668" width="336" height="40" fill="rgba(248,249,250,0.95)"/>
    <line x1="12" y1="668" x2="348" y2="668" stroke="rgba(0,0,0,0.08)" stroke-width="0.5"/>
    <rect x="60" y="680" width="20" height="4" rx="2" fill="rgba(0,0,0,0.12)"/>
    <rect x="120" y="680" width="20" height="4" rx="2" fill="rgba(0,0,0,0.12)"/>
    <rect x="170" y="680" width="20" height="4" rx="2" fill="rgba(88,86,214,0.6)"/>
    <rect x="220" y="680" width="20" height="4" rx="2" fill="rgba(0,0,0,0.12)"/>
    <rect x="280" y="680" width="20" height="4" rx="2" fill="rgba(0,0,0,0.12)"/>
  </g>
</svg>
