<svg width="360" height="720" viewBox="0 0 360 720" xmlns="http://www.w3.org/2000/svg">
  <defs>
    <linearGradient id="screenBg3" x1="0" y1="0" x2="0" y2="1">
      <stop offset="0%" stop-color="#0f0f23"/>
      <stop offset="100%" stop-color="#1a1a2e"/>
    </linearGradient>
    <clipPath id="screenClip3">
      <rect x="12" y="12" width="336" height="696" rx="28"/>
    </clipPath>
  </defs>
  <rect width="360" height="720" rx="40" fill="#1a1a1a" stroke="#333" stroke-width="3"/>
  <g clip-path="url(#screenClip3)">
    <rect x="12" y="12" width="336" height="696" fill="url(#screenBg3)"/>
    <!-- Status bar -->
    <rect x="12" y="12" width="336" height="44" fill="rgba(0,0,0,0.3)"/>
    <text x="32" y="40" fill="rgba(255,255,255,0.7)" font-family="-apple-system,system-ui,sans-serif" font-size="13" font-weight="500">9:41</text>
    <text x="310" y="40" fill="rgba(255,255,255,0.7)" font-family="-apple-system,system-ui,sans-serif" font-size="13" font-weight="500" text-anchor="end">100%</text>
    <rect x="120" y="12" width="120" height="28" rx="14" fill="#000"/>
    <!-- Header -->
    <text x="30" y="86" fill="#f5f5f7" font-family="-apple-system,system-ui,sans-serif" font-size="20" font-weight="600" letter-spacing="-0.3">Aktivitäts-Log</text>
    <line x1="30" y1="102" x2="330" y2="102" stroke="rgba(255,255,255,0.06)" stroke-width="1"/>

    <!-- Filter Tabs -->
    <rect x="30" y="114" width="60" height="30" rx="15" fill="rgba(88,86,214,0.3)"/>
    <text x="60" y="134" fill="#a78bfa" font-family="-apple-system,system-ui,sans-serif" font-size="12" font-weight="500" text-anchor="middle">Alle</text>
    <rect x="98" y="114" width="80" height="30" rx="15" fill="rgba(255,255,255,0.06)"/>
    <text x="138" y="134" fill="rgba(245,245,247,0.5)" font-family="-apple-system,system-ui,sans-serif" font-size="12" font-weight="500" text-anchor="middle">Blockiert</text>
    <rect x="186" y="114" width="90" height="30" rx="15" fill="rgba(255,255,255,0.06)"/>
    <text x="231" y="134" fill="rgba(245,245,247,0.5)" font-family="-apple-system,system-ui,sans-serif" font-size="12" font-weight="500" text-anchor="middle">Warnungen</text>

    <!-- Today section -->
    <text x="30" y="178" fill="rgba(245,245,247,0.4)" font-family="-apple-system,system-ui,sans-serif" font-size="11" font-weight="500" letter-spacing="0.5">HEUTE</text>

    <!-- Log entries -->
    <rect x="30" y="192" width="300" height="56" rx="12" fill="rgba(255,59,48,0.06)"/>
    <rect x="42" y="208" width="8" height="8" rx="4" fill="#ff3b30"/>
    <text x="60" y="216" fill="rgba(245,245,247,0.8)" font-family="-apple-system,system-ui,sans-serif" font-size="13" font-weight="500">Malware blockiert</text>
    <text x="60" y="234" fill="rgba(245,245,247,0.35)" font-family="-apple-system,system-ui,sans-serif" font-size="11">evil-payload.ru/download.exe</text>
    <text x="306" y="216" fill="rgba(245,245,247,0.3)" font-family="-apple-system,system-ui,sans-serif" font-size="11" text-anchor="end">10:23</text>

    <rect x="30" y="258" width="300" height="56" rx="12" fill="rgba(255,149,0,0.06)"/>
    <rect x="42" y="274" width="8" height="8" rx="4" fill="#ff9500"/>
    <text x="60" y="282" fill="rgba(245,245,247,0.8)" font-family="-apple-system,system-ui,sans-serif" font-size="13" font-weight="500">Phishing-Versuch erkannt</text>
    <text x="60" y="300" fill="rgba(245,245,247,0.35)" font-family="-apple-system,system-ui,sans-serif" font-size="11">login-bank-secure.fake.com</text>
    <text x="306" y="282" fill="rgba(245,245,247,0.3)" font-family="-apple-system,system-ui,sans-serif" font-size="11" text-anchor="end">09:47</text>

    <rect x="30" y="324" width="300" height="56" rx="12" fill="rgba(52,199,89,0.06)"/>
    <rect x="42" y="340" width="8" height="8" rx="4" fill="#34c759"/>
    <text x="60" y="348" fill="rgba(245,245,247,0.8)" font-family="-apple-system,system-ui,sans-serif" font-size="13" font-weight="500">Tracker blockiert</text>
    <text x="60" y="366" fill="rgba(245,245,247,0.35)" font-family="-apple-system,system-ui,sans-serif" font-size="11">analytics.google.com</text>
    <text x="306" y="348" fill="rgba(245,245,247,0.3)" font-family="-apple-system,system-ui,sans-serif" font-size="11" text-anchor="end">09:31</text>

    <rect x="30" y="390" width="300" height="56" rx="12" fill="rgba(52,199,89,0.06)"/>
    <rect x="42" y="406" width="8" height="8" rx="4" fill="#34c759"/>
    <text x="60" y="414" fill="rgba(245,245,247,0.8)" font-family="-apple-system,system-ui,sans-serif" font-size="13" font-weight="500">Tracker blockiert</text>
    <text x="60" y="432" fill="rgba(245,245,247,0.35)" font-family="-apple-system,system-ui,sans-serif" font-size="11">facebook-pixel.net/track</text>
    <text x="306" y="414" fill="rgba(245,245,247,0.3)" font-family="-apple-system,system-ui,sans-serif" font-size="11" text-anchor="end">09:15</text>

    <rect x="30" y="456" width="300" height="56" rx="12" fill="rgba(88,86,214,0.06)"/>
    <rect x="42" y="472" width="8" height="8" rx="4" fill="#5856d6"/>
    <text x="60" y="480" fill="rgba(245,245,247,0.8)" font-family="-apple-system,system-ui,sans-serif" font-size="13" font-weight="500">VPN verbunden</text>
    <text x="60" y="498" fill="rgba(245,245,247,0.35)" font-family="-apple-system,system-ui,sans-serif" font-size="11">Server: Zürich (CH)</text>
    <text x="306" y="480" fill="rgba(245,245,247,0.3)" font-family="-apple-system,system-ui,sans-serif" font-size="11" text-anchor="end">08:02</text>

    <!-- Yesterday section -->
    <text x="30" y="546" fill="rgba(245,245,247,0.4)" font-family="-apple-system,system-ui,sans-serif" font-size="11" font-weight="500" letter-spacing="0.5">GESTERN</text>

    <rect x="30" y="560" width="300" height="56" rx="12" fill="rgba(255,59,48,0.06)"/>
    <rect x="42" y="576" width="8" height="8" rx="4" fill="#ff3b30"/>
    <text x="60" y="584" fill="rgba(245,245,247,0.8)" font-family="-apple-system,system-ui,sans-serif" font-size="13" font-weight="500">Scam-Seite blockiert</text>
    <text x="60" y="602" fill="rgba(245,245,247,0.35)" font-family="-apple-system,system-ui,sans-serif" font-size="11">gewinnspiel-sofort.de</text>
    <text x="306" y="584" fill="rgba(245,245,247,0.3)" font-family="-apple-system,system-ui,sans-serif" font-size="11" text-anchor="end">22:14</text>

    <rect x="30" y="626" width="300" height="44" rx="12" fill="rgba(255,255,255,0.04)"/>
    <text x="180" y="653" fill="rgba(245,245,247,0.3)" font-family="-apple-system,system-ui,sans-serif" font-size="12" text-anchor="middle">+ 23 weitere Einträge</text>

    <!-- Bottom tab bar -->
    <rect x="12" y="676" width="336" height="32" fill="rgba(0,0,0,0.4)"/>
    <rect x="60" y="684" width="24" height="4" rx="2" fill="rgba(255,255,255,0.15)"/>
    <rect x="120" y="684" width="24" height="4" rx="2" fill="rgba(255,255,255,0.15)"/>
    <rect x="216" y="684" width="24" height="4" rx="2" fill="rgba(88,86,214,0.6)"/>
    <rect x="276" y="684" width="24" height="4" rx="2" fill="rgba(255,255,255,0.15)"/>
  </g>
</svg>
