<svg width="360" height="720" viewBox="0 0 360 720" xmlns="http://www.w3.org/2000/svg">
  <defs>
    <linearGradient id="screenBg" x1="0" y1="0" x2="0" y2="1">
      <stop offset="0%" stop-color="#0f0f23"/>
      <stop offset="100%" stop-color="#1a1a2e"/>
    </linearGradient>
    <linearGradient id="shieldGr" x1="0" y1="0" x2="1" y2="1">
      <stop offset="0%" stop-color="#34c759"/>
      <stop offset="100%" stop-color="#30d158"/>
    </linearGradient>
    <clipPath id="screenClip">
      <rect x="12" y="12" width="336" height="696" rx="28"/>
    </clipPath>
  </defs>
  <!-- Phone body -->
  <rect width="360" height="720" rx="40" fill="#1a1a1a" stroke="#333" stroke-width="3"/>
  <!-- Screen -->
  <g clip-path="url(#screenClip)">
    <rect x="12" y="12" width="336" height="696" fill="url(#screenBg)"/>
    <!-- Status bar -->
    <rect x="12" y="12" width="336" height="44" fill="rgba(0,0,0,0.3)"/>
    <text x="32" y="40" fill="rgba(255,255,255,0.7)" font-family="-apple-system,system-ui,sans-serif" font-size="13" font-weight="500">9:41</text>
    <text x="310" y="40" fill="rgba(255,255,255,0.7)" font-family="-apple-system,system-ui,sans-serif" font-size="13" font-weight="500" text-anchor="end">100%</text>
    <!-- Notch -->
    <rect x="120" y="12" width="120" height="28" rx="14" fill="#000"/>
    <!-- Header -->
    <text x="30" y="86" fill="#f5f5f7" font-family="-apple-system,system-ui,sans-serif" font-size="20" font-weight="600" letter-spacing="-0.3">Superheld</text>
    <rect x="264" y="68" width="72" height="26" rx="13" fill="rgba(52,199,89,0.15)"/>
    <circle cx="278" cy="81" r="4" fill="#34c759"/>
    <text x="288" y="86" fill="#34c759" font-family="-apple-system,system-ui,sans-serif" font-size="11" font-weight="500">Aktiv</text>
    <!-- Divider -->
    <line x1="30" y1="102" x2="330" y2="102" stroke="rgba(255,255,255,0.06)" stroke-width="1"/>
    <!-- Shield -->
    <g transform="translate(180, 230)">
      <path d="M0-65C-24-65-40-50-40-35c0 30 40 65 40 65s40-35 40-65C40-50 24-65 0-65z" fill="url(#shieldGr)" opacity="0.15"/>
      <path d="M0-50C-18-50-30-40-30-28c0 22 30 50 30 50s30-28 30-50c0-12-12-22-30-22z" fill="url(#shieldGr)"/>
      <path d="M-8 5l6 6 12-15" stroke="#fff" stroke-width="4" stroke-linecap="round" stroke-linejoin="round" fill="none"/>
    </g>
    <text x="180" y="310" fill="#f5f5f7" font-family="-apple-system,system-ui,sans-serif" font-size="18" font-weight="600" text-anchor="middle">Geschützt</text>
    <text x="180" y="332" fill="rgba(245,245,247,0.45)" font-family="-apple-system,system-ui,sans-serif" font-size="13" text-anchor="middle">Alle Systeme betriebsbereit</text>
    <!-- Stats row -->
    <rect x="30" y="380" width="144" height="80" rx="16" fill="rgba(255,255,255,0.06)"/>
    <text x="102" y="420" fill="#f5f5f7" font-family="-apple-system,system-ui,sans-serif" font-size="28" font-weight="700" text-anchor="middle">2.4k</text>
    <text x="102" y="442" fill="rgba(245,245,247,0.4)" font-family="-apple-system,system-ui,sans-serif" font-size="10" font-weight="500" text-anchor="middle" letter-spacing="0.5">BLOCKIERT</text>
    <rect x="186" y="380" width="144" height="80" rx="16" fill="rgba(255,255,255,0.06)"/>
    <text x="258" y="420" fill="#f5f5f7" font-family="-apple-system,system-ui,sans-serif" font-size="28" font-weight="700" text-anchor="middle">99.8%</text>
    <text x="258" y="442" fill="rgba(245,245,247,0.4)" font-family="-apple-system,system-ui,sans-serif" font-size="10" font-weight="500" text-anchor="middle" letter-spacing="0.5">UPTIME</text>
    <!-- Recent Activity -->
    <text x="30" y="506" fill="rgba(245,245,247,0.4)" font-family="-apple-system,system-ui,sans-serif" font-size="11" font-weight="500" letter-spacing="0.5">LETZTE AKTIVITÄT</text>
    <rect x="30" y="520" width="300" height="44" rx="12" fill="rgba(255,255,255,0.04)"/>
    <circle cx="52" cy="542" r="6" fill="#34c759"/>
    <text x="68" y="540" fill="rgba(245,245,247,0.8)" font-family="-apple-system,system-ui,sans-serif" font-size="13">Tracker blockiert</text>
    <text x="68" y="554" fill="rgba(245,245,247,0.35)" font-family="-apple-system,system-ui,sans-serif" font-size="11">analytics.example.com</text>
    <rect x="30" y="572" width="300" height="44" rx="12" fill="rgba(255,255,255,0.04)"/>
    <circle cx="52" cy="594" r="6" fill="#ff9500"/>
    <text x="68" y="592" fill="rgba(245,245,247,0.8)" font-family="-apple-system,system-ui,sans-serif" font-size="13">Warnung erkannt</text>
    <text x="68" y="606" fill="rgba(245,245,247,0.35)" font-family="-apple-system,system-ui,sans-serif" font-size="11">suspicious-domain.net</text>
    <rect x="30" y="624" width="300" height="44" rx="12" fill="rgba(255,255,255,0.04)"/>
    <circle cx="52" cy="646" r="6" fill="#5856d6"/>
    <text x="68" y="644" fill="rgba(245,245,247,0.8)" font-family="-apple-system,system-ui,sans-serif" font-size="13">VPN verbunden</text>
    <text x="68" y="658" fill="rgba(245,245,247,0.35)" font-family="-apple-system,system-ui,sans-serif" font-size="11">Zürich, Schweiz</text>
    <!-- Bottom tab bar -->
    <rect x="12" y="676" width="336" height="32" fill="rgba(0,0,0,0.4)"/>
    <rect x="60" y="684" width="24" height="4" rx="2" fill="rgba(88,86,214,0.6)"/>
    <rect x="120" y="684" width="24" height="4" rx="2" fill="rgba(255,255,255,0.15)"/>
    <rect x="216" y="684" width="24" height="4" rx="2" fill="rgba(255,255,255,0.15)"/>
    <rect x="276" y="684" width="24" height="4" rx="2" fill="rgba(255,255,255,0.15)"/>
  </g>
</svg>
