<svg width="800" height="520" viewBox="0 0 800 520" xmlns="http://www.w3.org/2000/svg">
  <defs>
    <linearGradient id="macTitleBar2" x1="0" y1="0" x2="0" y2="1">
      <stop offset="0%" stop-color="#e8e8ed"/>
      <stop offset="100%" stop-color="#d5d5da"/>
    </linearGradient>
  </defs>
  <rect width="800" height="520" rx="12" fill="#fff" stroke="#c7c7cc" stroke-width="1"/>
  <rect width="800" height="36" rx="12" fill="url(#macTitleBar2)"/>
  <rect y="24" width="800" height="12" fill="url(#macTitleBar2)"/>
  <circle cx="20" cy="18" r="6" fill="#ff5f57"/>
  <circle cx="40" cy="18" r="6" fill="#febc2e"/>
  <circle cx="60" cy="18" r="6" fill="#28c840"/>
  <text x="400" y="23" fill="#1d1d1f" font-family="-apple-system,system-ui,sans-serif" font-size="13" font-weight="500" text-anchor="middle">Superheld — Familien-Dashboard</text>

  <!-- Sidebar -->
  <rect x="0" y="36" width="200" height="484" fill="#f5f5f7"/>
  <line x1="200" y1="36" x2="200" y2="520" stroke="rgba(0,0,0,0.08)" stroke-width="1"/>
  <text x="40" y="73" fill="#1d1d1f" font-family="-apple-system,system-ui,sans-serif" font-size="13">Dashboard</text>
  <circle cx="24" cy="68" r="4" fill="rgba(0,0,0,0.2)"/>
  <text x="40" y="103" fill="#1d1d1f" font-family="-apple-system,system-ui,sans-serif" font-size="13">Geräte</text>
  <circle cx="24" cy="98" r="4" fill="rgba(0,0,0,0.2)"/>
  <rect x="12" y="116" width="176" height="32" rx="8" fill="rgba(88,86,214,0.12)"/>
  <text x="40" y="137" fill="#5856d6" font-family="-apple-system,system-ui,sans-serif" font-size="13" font-weight="600">Familie</text>
  <circle cx="24" cy="132" r="4" fill="#5856d6"/>
  <text x="40" y="167" fill="#1d1d1f" font-family="-apple-system,system-ui,sans-serif" font-size="13">Regeln</text>
  <circle cx="24" cy="162" r="4" fill="rgba(0,0,0,0.2)"/>
  <text x="40" y="197" fill="#1d1d1f" font-family="-apple-system,system-ui,sans-serif" font-size="13">Protokoll</text>
  <circle cx="24" cy="192" r="4" fill="rgba(0,0,0,0.2)"/>

  <!-- Family members sidebar -->
  <text x="20" y="250" fill="rgba(29,29,31,0.4)" font-family="-apple-system,system-ui,sans-serif" font-size="10" font-weight="500" letter-spacing="0.5">FAMILIENMITGLIEDER</text>
  <circle cx="28" cy="275" r="8" fill="rgba(52,199,89,0.2)"/>
  <text x="28" y="279" fill="#34c759" font-family="-apple-system,system-ui,sans-serif" font-size="9" font-weight="600" text-anchor="middle">P</text>
  <text x="44" y="279" fill="#1d1d1f" font-family="-apple-system,system-ui,sans-serif" font-size="12">Papa (Admin)</text>
  <circle cx="28" cy="300" r="8" fill="rgba(88,86,214,0.2)"/>
  <text x="28" y="304" fill="#5856d6" font-family="-apple-system,system-ui,sans-serif" font-size="9" font-weight="600" text-anchor="middle">M</text>
  <text x="44" y="304" fill="#1d1d1f" font-family="-apple-system,system-ui,sans-serif" font-size="12">Mama (Admin)</text>
  <circle cx="28" cy="325" r="8" fill="rgba(245,158,11,0.2)"/>
  <text x="28" y="329" fill="#f59e0b" font-family="-apple-system,system-ui,sans-serif" font-size="9" font-weight="600" text-anchor="middle">L</text>
  <text x="44" y="329" fill="#1d1d1f" font-family="-apple-system,system-ui,sans-serif" font-size="12">Lena (12)</text>
  <circle cx="28" cy="350" r="8" fill="rgba(239,68,68,0.2)"/>
  <text x="28" y="354" fill="#ef4444" font-family="-apple-system,system-ui,sans-serif" font-size="9" font-weight="600" text-anchor="middle">M</text>
  <text x="44" y="354" fill="#1d1d1f" font-family="-apple-system,system-ui,sans-serif" font-size="12">Max (9)</text>

  <!-- Status badge -->
  <rect x="12" y="470" width="176" height="36" rx="8" fill="rgba(52,199,89,0.08)"/>
  <circle cx="28" cy="488" r="5" fill="#34c759"/>
  <text x="40" y="492" fill="#34c759" font-family="-apple-system,system-ui,sans-serif" font-size="12" font-weight="500">4 Geräte geschützt</text>

  <!-- Main content area -->
  <!-- Stats cards -->
  <rect x="220" y="52" width="135" height="80" rx="12" fill="#f5f5f7"/>
  <text x="240" y="76" fill="rgba(29,29,31,0.45)" font-family="-apple-system,system-ui,sans-serif" font-size="10" font-weight="500" letter-spacing="0.3">GERÄTE ONLINE</text>
  <text x="240" y="112" fill="#1d1d1f" font-family="-apple-system,system-ui,sans-serif" font-size="28" font-weight="700">4</text>
  <text x="266" y="112" fill="#34c759" font-family="-apple-system,system-ui,sans-serif" font-size="13">/ 4</text>

  <rect x="367" y="52" width="135" height="80" rx="12" fill="#f5f5f7"/>
  <text x="387" y="76" fill="rgba(29,29,31,0.45)" font-family="-apple-system,system-ui,sans-serif" font-size="10" font-weight="500" letter-spacing="0.3">BLOCKIERT HEUTE</text>
  <text x="387" y="112" fill="#1d1d1f" font-family="-apple-system,system-ui,sans-serif" font-size="28" font-weight="700">142</text>

  <rect x="514" y="52" width="135" height="80" rx="12" fill="#f5f5f7"/>
  <text x="534" y="76" fill="rgba(29,29,31,0.45)" font-family="-apple-system,system-ui,sans-serif" font-size="10" font-weight="500" letter-spacing="0.3">ANFRAGEN</text>
  <text x="534" y="112" fill="#ff9500" font-family="-apple-system,system-ui,sans-serif" font-size="28" font-weight="700">3</text>

  <rect x="661" y="52" width="119" height="80" rx="12" fill="#f5f5f7"/>
  <text x="681" y="76" fill="rgba(29,29,31,0.45)" font-family="-apple-system,system-ui,sans-serif" font-size="10" font-weight="500" letter-spacing="0.3">BILDSCHIRMZEIT</text>
  <text x="681" y="112" fill="#1d1d1f" font-family="-apple-system,system-ui,sans-serif" font-size="28" font-weight="700">4.2h</text>

  <!-- Screen Time Chart -->
  <rect x="220" y="148" width="340" height="180" rx="12" fill="#f5f5f7"/>
  <text x="240" y="176" fill="#1d1d1f" font-family="-apple-system,system-ui,sans-serif" font-size="14" font-weight="600">Bildschirmzeit heute</text>

  <!-- Lena bar -->
  <text x="240" y="210" fill="rgba(29,29,31,0.6)" font-family="-apple-system,system-ui,sans-serif" font-size="11">Lena</text>
  <rect x="290" y="200" width="220" height="14" rx="7" fill="rgba(0,0,0,0.04)"/>
  <rect x="290" y="200" width="88" height="14" rx="7" fill="#a78bfa"/>
  <text x="520" y="211" fill="rgba(29,29,31,0.4)" font-family="-apple-system,system-ui,sans-serif" font-size="11">45m / 2h</text>

  <!-- Max bar -->
  <text x="240" y="240" fill="rgba(29,29,31,0.6)" font-family="-apple-system,system-ui,sans-serif" font-size="11">Max</text>
  <rect x="290" y="230" width="220" height="14" rx="7" fill="rgba(0,0,0,0.04)"/>
  <rect x="290" y="230" width="165" height="14" rx="7" fill="#fbbf24"/>
  <text x="520" y="241" fill="rgba(29,29,31,0.4)" font-family="-apple-system,system-ui,sans-serif" font-size="11">1h30 / 2h</text>

  <!-- Papa bar -->
  <text x="240" y="270" fill="rgba(29,29,31,0.6)" font-family="-apple-system,system-ui,sans-serif" font-size="11">Papa</text>
  <rect x="290" y="260" width="220" height="14" rx="7" fill="rgba(0,0,0,0.04)"/>
  <rect x="290" y="260" width="44" height="14" rx="7" fill="rgba(52,199,89,0.6)"/>
  <text x="520" y="271" fill="rgba(29,29,31,0.4)" font-family="-apple-system,system-ui,sans-serif" font-size="11">25m</text>

  <!-- Mama bar -->
  <text x="240" y="300" fill="rgba(29,29,31,0.6)" font-family="-apple-system,system-ui,sans-serif" font-size="11">Mama</text>
  <rect x="290" y="290" width="220" height="14" rx="7" fill="rgba(0,0,0,0.04)"/>
  <rect x="290" y="290" width="110" height="14" rx="7" fill="rgba(52,199,89,0.6)"/>
  <text x="520" y="301" fill="rgba(29,29,31,0.4)" font-family="-apple-system,system-ui,sans-serif" font-size="11">1h</text>

  <!-- Pending requests -->
  <rect x="572" y="148" width="208" height="180" rx="12" fill="#f5f5f7"/>
  <text x="592" y="176" fill="#1d1d1f" font-family="-apple-system,system-ui,sans-serif" font-size="14" font-weight="600">Freigabe-Anfragen</text>

  <rect x="584" y="192" width="184" height="50" rx="8" fill="#fff" stroke="rgba(255,149,0,0.3)" stroke-width="1"/>
  <text x="596" y="212" fill="#1d1d1f" font-family="-apple-system,system-ui,sans-serif" font-size="12" font-weight="500">Max: youtube.com</text>
  <text x="596" y="228" fill="rgba(29,29,31,0.4)" font-family="-apple-system,system-ui,sans-serif" font-size="10">Vor 5 Min</text>
  <rect x="726" y="204" width="32" height="22" rx="11" fill="#34c759"/>
  <text x="742" y="219" fill="#fff" font-family="-apple-system,system-ui,sans-serif" font-size="10" font-weight="600" text-anchor="middle">OK</text>

  <rect x="584" y="250" width="184" height="50" rx="8" fill="#fff" stroke="rgba(255,149,0,0.3)" stroke-width="1"/>
  <text x="596" y="270" fill="#1d1d1f" font-family="-apple-system,system-ui,sans-serif" font-size="12" font-weight="500">Lena: discord.com</text>
  <text x="596" y="286" fill="rgba(29,29,31,0.4)" font-family="-apple-system,system-ui,sans-serif" font-size="10">Vor 12 Min</text>
  <rect x="726" y="262" width="32" height="22" rx="11" fill="#34c759"/>
  <text x="742" y="277" fill="#fff" font-family="-apple-system,system-ui,sans-serif" font-size="10" font-weight="600" text-anchor="middle">OK</text>

  <rect x="584" y="308" width="184" height="50" rx="8" fill="#fff"/>
  <text x="596" y="328" fill="rgba(29,29,31,0.5)" font-family="-apple-system,system-ui,sans-serif" font-size="12">Max: tiktok.com</text>
  <text x="596" y="344" fill="rgba(29,29,31,0.3)" font-family="-apple-system,system-ui,sans-serif" font-size="10">Abgelehnt · 1h</text>
  <rect x="720" y="320" width="42" height="22" rx="11" fill="rgba(255,59,48,0.1)"/>
  <text x="741" y="335" fill="#ff3b30" font-family="-apple-system,system-ui,sans-serif" font-size="10" font-weight="500" text-anchor="middle">Nein</text>

  <!-- Active Rules -->
  <rect x="220" y="344" width="560" height="166" rx="12" fill="#f5f5f7"/>
  <text x="240" y="372" fill="#1d1d1f" font-family="-apple-system,system-ui,sans-serif" font-size="14" font-weight="600">Aktive Regeln</text>

  <!-- Rule rows -->
  <text x="240" y="402" fill="#1d1d1f" font-family="-apple-system,system-ui,sans-serif" font-size="13">Jugendschutz (Lena, Max)</text>
  <rect x="680" y="390" width="72" height="22" rx="11" fill="rgba(52,199,89,0.12)"/>
  <text x="716" y="405" fill="#34c759" font-family="-apple-system,system-ui,sans-serif" font-size="11" font-weight="500" text-anchor="middle">Aktiv</text>

  <text x="240" y="430" fill="#1d1d1f" font-family="-apple-system,system-ui,sans-serif" font-size="13">Schulzeit-Profil (Mo-Fr, 8-14h)</text>
  <rect x="680" y="418" width="72" height="22" rx="11" fill="rgba(52,199,89,0.12)"/>
  <text x="716" y="433" fill="#34c759" font-family="-apple-system,system-ui,sans-serif" font-size="11" font-weight="500" text-anchor="middle">Aktiv</text>

  <text x="240" y="458" fill="#1d1d1f" font-family="-apple-system,system-ui,sans-serif" font-size="13">Schlafenszeit (21-7h)</text>
  <rect x="680" y="446" width="72" height="22" rx="11" fill="rgba(29,29,31,0.06)"/>
  <text x="716" y="461" fill="rgba(29,29,31,0.4)" font-family="-apple-system,system-ui,sans-serif" font-size="11" font-weight="500" text-anchor="middle">Inaktiv</text>

  <text x="240" y="486" fill="#1d1d1f" font-family="-apple-system,system-ui,sans-serif" font-size="13">Social Media Limits (2h/Tag)</text>
  <rect x="680" y="474" width="72" height="22" rx="11" fill="rgba(52,199,89,0.12)"/>
  <text x="716" y="489" fill="#34c759" font-family="-apple-system,system-ui,sans-serif" font-size="11" font-weight="500" text-anchor="middle">Aktiv</text>
</svg>
