<svg width="540" height="960" viewBox="0 0 540 960" xmlns="http://www.w3.org/2000/svg">
  <defs>
    <linearGradient id="bg" x1="0" y1="0" x2="0" y2="1">
      <stop offset="0%" stop-color="#1a1f2b"/>
      <stop offset="100%" stop-color="#121826"/>
    </linearGradient>
    <filter id="shadow" x="-20%" y="-20%" width="140%" height="140%">
      <feDropShadow dx="0" dy="10" stdDeviation="12" flood-color="#000" flood-opacity="0.3"/>
    </filter>
  </defs>
  <rect width="540" height="960" rx="40" ry="40" fill="url(#bg)" />
  <rect x="30" y="40" width="480" height="72" rx="18" ry="18" fill="#0f172a" />
  <text x="60" y="86" fill="#fff" font-family="system-ui, sans-serif" font-size="28" font-weight="700">superheld.app</text>
  <text x="60" y="124" fill="#a8b2c6" font-family="system-ui, sans-serif" font-size="16">Linux • CLI + GUI</text>
  <g filter="url(#shadow)">
    <rect x="30" y="160" width="480" height="620" rx="28" ry="28" fill="#0f172a" />
  </g>
  <text x="60" y="210" fill="#cbd5e1" font-family="system-ui, sans-serif" font-size="18" font-weight="600">Dashboard</text>
  <line x1="60" y1="220" x2="480" y2="220" stroke="#334155" stroke-width="1" />
  <rect x="60" y="260" width="420" height="52" rx="14" ry="14" fill="#152039" />
  <text x="90" y="294" fill="#e2e8f0" font-family="system-ui, sans-serif" font-size="16">VPN</text>
  <rect x="60" y="330" width="420" height="52" rx="14" ry="14" fill="#152039" />
  <text x="90" y="364" fill="#e2e8f0" font-family="system-ui, sans-serif" font-size="16">Proxy</text>
  <rect x="60" y="400" width="420" height="52" rx="14" ry="14" fill="#152039" />
  <text x="90" y="434" fill="#e2e8f0" font-family="system-ui, sans-serif" font-size="16">Updates</text>
  <rect x="60" y="470" width="420" height="52" rx="14" ry="14" fill="#152039" />
  <text x="90" y="504" fill="#e2e8f0" font-family="system-ui, sans-serif" font-size="16">Admin-Tools</text>
  <text x="60" y="580" fill="#64748b" font-family="system-ui, sans-serif" font-size="14">Status: Sicher · Letzte Prüfung: 2m</text>
</svg>
