<svg width="800" height="520" viewBox="0 0 800 520" xmlns="http://www.w3.org/2000/svg">
  <defs>
    <linearGradient id="macTitleBarNGO" x1="0" y1="0" x2="0" y2="1">
      <stop offset="0%" stop-color="#e8e8ed"/>
      <stop offset="100%" stop-color="#d5d5da"/>
    </linearGradient>
  </defs>
  <rect width="800" height="520" rx="12" fill="#fff" stroke="#c7c7cc" stroke-width="1"/>
  <rect width="800" height="36" rx="12" fill="url(#macTitleBarNGO)"/>
  <rect y="24" width="800" height="12" fill="url(#macTitleBarNGO)"/>
  <circle cx="20" cy="18" r="6" fill="#ff5f57"/>
  <circle cx="40" cy="18" r="6" fill="#febc2e"/>
  <circle cx="60" cy="18" r="6" fill="#28c840"/>
  <text x="400" y="23" fill="#1d1d1f" font-family="-apple-system,system-ui,sans-serif" font-size="13" font-weight="500" text-anchor="middle">Superheld — Team-Übersicht</text>

  <!-- Sidebar -->
  <rect x="0" y="36" width="200" height="484" fill="#f5f5f7"/>
  <line x1="200" y1="36" x2="200" y2="520" stroke="rgba(0,0,0,0.08)" stroke-width="1"/>
  <text x="40" y="73" fill="#1d1d1f" font-family="-apple-system,system-ui,sans-serif" font-size="13">Dashboard</text>
  <circle cx="24" cy="68" r="4" fill="rgba(0,0,0,0.2)"/>
  <rect x="12" y="82" width="176" height="32" rx="8" fill="rgba(88,86,214,0.12)"/>
  <text x="40" y="103" fill="#5856d6" font-family="-apple-system,system-ui,sans-serif" font-size="13" font-weight="600">Teams</text>
  <circle cx="24" cy="98" r="4" fill="#5856d6"/>
  <text x="40" y="133" fill="#1d1d1f" font-family="-apple-system,system-ui,sans-serif" font-size="13">Kampagnen</text>
  <circle cx="24" cy="128" r="4" fill="rgba(0,0,0,0.2)"/>
  <text x="40" y="163" fill="#1d1d1f" font-family="-apple-system,system-ui,sans-serif" font-size="13">Spender</text>
  <circle cx="24" cy="158" r="4" fill="rgba(0,0,0,0.2)"/>
  <text x="40" y="193" fill="#1d1d1f" font-family="-apple-system,system-ui,sans-serif" font-size="13">Reports</text>
  <circle cx="24" cy="188" r="4" fill="rgba(0,0,0,0.2)"/>
  <text x="40" y="223" fill="#1d1d1f" font-family="-apple-system,system-ui,sans-serif" font-size="13">Einstellungen</text>
  <circle cx="24" cy="218" r="4" fill="rgba(0,0,0,0.2)"/>

  <!-- Workspace badge -->
  <text x="20" y="268" fill="rgba(29,29,31,0.4)" font-family="-apple-system,system-ui,sans-serif" font-size="10" font-weight="500" letter-spacing="0.5">WORKSPACE</text>
  <rect x="16" y="280" width="168" height="26" rx="6" fill="rgba(88,86,214,0.08)"/>
  <text x="28" y="298" fill="#5856d6" font-family="-apple-system,system-ui,sans-serif" font-size="11" font-weight="500">Global Justice Network</text>

  <!-- E2E badge -->
  <rect x="12" y="470" width="176" height="36" rx="8" fill="rgba(52,199,89,0.08)"/>
  <rect x="24" y="482" width="8" height="12" rx="2" fill="#34c759"/>
  <rect x="25" y="479" width="6" height="5" rx="2.5" fill="none" stroke="#34c759" stroke-width="1.2"/>
  <text x="40" y="493" fill="#34c759" font-family="-apple-system,system-ui,sans-serif" font-size="11" font-weight="500">E2E-verschlüsselt</text>

  <!-- Main content -->
  <text x="230" y="62" fill="#1d1d1f" font-family="-apple-system,system-ui,sans-serif" font-size="16" font-weight="600">Globale Teams</text>
  <text x="230" y="80" fill="rgba(29,29,31,0.4)" font-family="-apple-system,system-ui,sans-serif" font-size="12">4 Standorte, 32 Mitglieder</text>
  <rect x="680" y="48" width="90" height="28" rx="14" fill="#5856d6"/>
  <text x="725" y="67" fill="#fff" font-family="-apple-system,system-ui,sans-serif" font-size="12" font-weight="500" text-anchor="middle">+ Einladen</text>

  <!-- Team cards row 1 -->
  <!-- India -->
  <rect x="220" y="96" width="265" height="130" rx="10" fill="#fff" stroke="rgba(0,0,0,0.06)" stroke-width="1"/>
  <rect x="232" y="108" width="8" height="8" rx="4" fill="#ff9500"/>
  <text x="248" y="117" fill="#1d1d1f" font-family="-apple-system,system-ui,sans-serif" font-size="14" font-weight="600">Indien — Advocacy</text>
  <text x="248" y="133" fill="rgba(29,29,31,0.4)" font-family="-apple-system,system-ui,sans-serif" font-size="11">Mumbai, 8 Mitglieder</text>

  <!-- Avatars -->
  <circle cx="248" cy="156" r="12" fill="rgba(255,149,0,0.15)"/>
  <text x="248" y="160" fill="#ff9500" font-family="-apple-system,system-ui,sans-serif" font-size="9" font-weight="600" text-anchor="middle">PK</text>
  <circle cx="272" cy="156" r="12" fill="rgba(255,149,0,0.15)"/>
  <text x="272" y="160" fill="#ff9500" font-family="-apple-system,system-ui,sans-serif" font-size="9" font-weight="600" text-anchor="middle">AS</text>
  <circle cx="296" cy="156" r="12" fill="rgba(255,149,0,0.15)"/>
  <text x="296" y="160" fill="#ff9500" font-family="-apple-system,system-ui,sans-serif" font-size="9" font-weight="600" text-anchor="middle">RG</text>
  <circle cx="320" cy="156" r="12" fill="rgba(255,149,0,0.1)"/>
  <text x="320" y="160" fill="rgba(255,149,0,0.6)" font-family="-apple-system,system-ui,sans-serif" font-size="9" font-weight="600" text-anchor="middle">+5</text>

  <rect x="232" y="180" width="52" height="18" rx="9" fill="rgba(52,199,89,0.08)"/>
  <text x="258" y="193" fill="#34c759" font-family="-apple-system,system-ui,sans-serif" font-size="9" font-weight="500" text-anchor="middle">Online: 3</text>
  <text x="300" y="193" fill="rgba(29,29,31,0.3)" font-family="-apple-system,system-ui,sans-serif" font-size="10">IST +5:30</text>
  <text x="232" y="214" fill="rgba(29,29,31,0.4)" font-family="-apple-system,system-ui,sans-serif" font-size="10">Letzte Aktivität: vor 12 Min.</text>

  <!-- Philippines -->
  <rect x="495" y="96" width="275" height="130" rx="10" fill="#fff" stroke="rgba(0,0,0,0.06)" stroke-width="1"/>
  <rect x="507" y="108" width="8" height="8" rx="4" fill="#5856d6"/>
  <text x="523" y="117" fill="#1d1d1f" font-family="-apple-system,system-ui,sans-serif" font-size="14" font-weight="600">Philippinen — Field Ops</text>
  <text x="523" y="133" fill="rgba(29,29,31,0.4)" font-family="-apple-system,system-ui,sans-serif" font-size="11">Manila, 12 Mitglieder</text>

  <circle cx="523" cy="156" r="12" fill="rgba(88,86,214,0.15)"/>
  <text x="523" y="160" fill="#5856d6" font-family="-apple-system,system-ui,sans-serif" font-size="9" font-weight="600" text-anchor="middle">MR</text>
  <circle cx="547" cy="156" r="12" fill="rgba(88,86,214,0.15)"/>
  <text x="547" y="160" fill="#5856d6" font-family="-apple-system,system-ui,sans-serif" font-size="9" font-weight="600" text-anchor="middle">JL</text>
  <circle cx="571" cy="156" r="12" fill="rgba(88,86,214,0.15)"/>
  <text x="571" y="160" fill="#5856d6" font-family="-apple-system,system-ui,sans-serif" font-size="9" font-weight="600" text-anchor="middle">CT</text>
  <circle cx="595" cy="156" r="12" fill="rgba(88,86,214,0.1)"/>
  <text x="595" y="160" fill="rgba(88,86,214,0.6)" font-family="-apple-system,system-ui,sans-serif" font-size="9" font-weight="600" text-anchor="middle">+9</text>

  <rect x="507" y="180" width="52" height="18" rx="9" fill="rgba(52,199,89,0.08)"/>
  <text x="533" y="193" fill="#34c759" font-family="-apple-system,system-ui,sans-serif" font-size="9" font-weight="500" text-anchor="middle">Online: 7</text>
  <text x="575" y="193" fill="rgba(29,29,31,0.3)" font-family="-apple-system,system-ui,sans-serif" font-size="10">PHT +8:00</text>
  <text x="507" y="214" fill="rgba(29,29,31,0.4)" font-family="-apple-system,system-ui,sans-serif" font-size="10">Letzte Aktivität: vor 2 Min.</text>

  <!-- Bangladesh -->
  <rect x="220" y="236" width="265" height="130" rx="10" fill="#fff" stroke="rgba(0,0,0,0.06)" stroke-width="1"/>
  <rect x="232" y="248" width="8" height="8" rx="4" fill="#34c759"/>
  <text x="248" y="257" fill="#1d1d1f" font-family="-apple-system,system-ui,sans-serif" font-size="14" font-weight="600">Bangladesch — Doku</text>
  <text x="248" y="273" fill="rgba(29,29,31,0.4)" font-family="-apple-system,system-ui,sans-serif" font-size="11">Dhaka, 6 Mitglieder</text>

  <circle cx="248" cy="296" r="12" fill="rgba(52,199,89,0.15)"/>
  <text x="248" y="300" fill="#34c759" font-family="-apple-system,system-ui,sans-serif" font-size="9" font-weight="600" text-anchor="middle">FA</text>
  <circle cx="272" cy="296" r="12" fill="rgba(52,199,89,0.15)"/>
  <text x="272" y="300" fill="#34c759" font-family="-apple-system,system-ui,sans-serif" font-size="9" font-weight="600" text-anchor="middle">NH</text>
  <circle cx="296" cy="296" r="12" fill="rgba(52,199,89,0.1)"/>
  <text x="296" y="300" fill="rgba(52,199,89,0.6)" font-family="-apple-system,system-ui,sans-serif" font-size="9" font-weight="600" text-anchor="middle">+4</text>

  <rect x="232" y="320" width="52" height="18" rx="9" fill="rgba(52,199,89,0.08)"/>
  <text x="258" y="333" fill="#34c759" font-family="-apple-system,system-ui,sans-serif" font-size="9" font-weight="500" text-anchor="middle">Online: 2</text>
  <text x="300" y="333" fill="rgba(29,29,31,0.3)" font-family="-apple-system,system-ui,sans-serif" font-size="10">BDT +6:00</text>
  <text x="232" y="354" fill="rgba(29,29,31,0.4)" font-family="-apple-system,system-ui,sans-serif" font-size="10">Letzte Aktivität: vor 45 Min.</text>

  <!-- USA -->
  <rect x="495" y="236" width="275" height="130" rx="10" fill="#fff" stroke="rgba(0,0,0,0.06)" stroke-width="1"/>
  <rect x="507" y="248" width="8" height="8" rx="4" fill="#007aff"/>
  <text x="523" y="257" fill="#1d1d1f" font-family="-apple-system,system-ui,sans-serif" font-size="14" font-weight="600">USA — Policy &amp; Fundraising</text>
  <text x="523" y="273" fill="rgba(29,29,31,0.4)" font-family="-apple-system,system-ui,sans-serif" font-size="11">Washington D.C., 6 Mitglieder</text>

  <circle cx="523" cy="296" r="12" fill="rgba(0,122,255,0.15)"/>
  <text x="523" y="300" fill="#007aff" font-family="-apple-system,system-ui,sans-serif" font-size="9" font-weight="600" text-anchor="middle">SJ</text>
  <circle cx="547" cy="296" r="12" fill="rgba(0,122,255,0.15)"/>
  <text x="547" y="300" fill="#007aff" font-family="-apple-system,system-ui,sans-serif" font-size="9" font-weight="600" text-anchor="middle">BT</text>
  <circle cx="571" cy="296" r="12" fill="rgba(0,122,255,0.1)"/>
  <text x="571" y="300" fill="rgba(0,122,255,0.6)" font-family="-apple-system,system-ui,sans-serif" font-size="9" font-weight="600" text-anchor="middle">+4</text>

  <rect x="507" y="320" width="52" height="18" rx="9" fill="rgba(255,149,0,0.08)"/>
  <text x="533" y="333" fill="#ff9500" font-family="-apple-system,system-ui,sans-serif" font-size="9" font-weight="500" text-anchor="middle">Offline</text>
  <text x="575" y="333" fill="rgba(29,29,31,0.3)" font-family="-apple-system,system-ui,sans-serif" font-size="10">EST -5:00</text>
  <text x="507" y="354" fill="rgba(29,29,31,0.4)" font-family="-apple-system,system-ui,sans-serif" font-size="10">Letzte Aktivität: vor 6 Std.</text>

  <!-- Global groups section -->
  <text x="236" y="396" fill="rgba(29,29,31,0.4)" font-family="-apple-system,system-ui,sans-serif" font-size="10" font-weight="500" letter-spacing="0.5">GLOBALE GRUPPEN</text>

  <rect x="220" y="408" width="170" height="36" rx="8" fill="rgba(88,86,214,0.06)"/>
  <text x="236" y="431" fill="#5856d6" font-family="-apple-system,system-ui,sans-serif" font-size="12" font-weight="500">All Leads</text>
  <text x="374" y="431" fill="rgba(29,29,31,0.3)" font-family="-apple-system,system-ui,sans-serif" font-size="10" text-anchor="end">4</text>

  <rect x="400" y="408" width="170" height="36" rx="8" fill="rgba(255,149,0,0.06)"/>
  <text x="416" y="431" fill="#ff9500" font-family="-apple-system,system-ui,sans-serif" font-size="12" font-weight="500">Campaign Ops</text>
  <text x="554" y="431" fill="rgba(29,29,31,0.3)" font-family="-apple-system,system-ui,sans-serif" font-size="10" text-anchor="end">12</text>

  <rect x="580" y="408" width="190" height="36" rx="8" fill="rgba(52,199,89,0.06)"/>
  <text x="596" y="431" fill="#34c759" font-family="-apple-system,system-ui,sans-serif" font-size="12" font-weight="500">Dokumentation</text>
  <text x="754" y="431" fill="rgba(29,29,31,0.3)" font-family="-apple-system,system-ui,sans-serif" font-size="10" text-anchor="end">8</text>

  <!-- Stats row -->
  <rect x="220" y="456" width="550" height="44" rx="8" fill="rgba(0,0,0,0.02)"/>
  <text x="280" y="483" fill="rgba(29,29,31,0.4)" font-family="-apple-system,system-ui,sans-serif" font-size="11" text-anchor="middle">32 Mitglieder</text>
  <line x1="340" y1="466" x2="340" y2="490" stroke="rgba(0,0,0,0.06)" stroke-width="1"/>
  <text x="420" y="483" fill="rgba(29,29,31,0.4)" font-family="-apple-system,system-ui,sans-serif" font-size="11" text-anchor="middle">4 Zeitzonen</text>
  <line x1="500" y1="466" x2="500" y2="490" stroke="rgba(0,0,0,0.06)" stroke-width="1"/>
  <text x="580" y="483" fill="rgba(29,29,31,0.4)" font-family="-apple-system,system-ui,sans-serif" font-size="11" text-anchor="middle">12 online</text>
  <line x1="640" y1="466" x2="640" y2="490" stroke="rgba(0,0,0,0.06)" stroke-width="1"/>
  <text x="720" y="483" fill="#34c759" font-family="-apple-system,system-ui,sans-serif" font-size="11" font-weight="500" text-anchor="middle">Alle verschlüsselt</text>
</svg>
