<svg width="360" height="720" viewBox="0 0 360 720" xmlns="http://www.w3.org/2000/svg">
  <defs>
    <linearGradient id="screenBgWS" x1="0" y1="0" x2="0" y2="1">
      <stop offset="0%" stop-color="#0f0f23"/>
      <stop offset="100%" stop-color="#1a1a2e"/>
    </linearGradient>
    <clipPath id="screenClipWS">
      <rect x="12" y="12" width="336" height="696" rx="28"/>
    </clipPath>
  </defs>
  <rect width="360" height="720" rx="40" fill="#1a1a1a" stroke="#333" stroke-width="3"/>
  <g clip-path="url(#screenClipWS)">
    <rect x="12" y="12" width="336" height="696" fill="url(#screenBgWS)"/>
    <!-- Status bar -->
    <rect x="12" y="12" width="336" height="44" fill="rgba(0,0,0,0.3)"/>
    <text x="32" y="40" fill="rgba(255,255,255,0.7)" font-family="-apple-system,system-ui,sans-serif" font-size="13" font-weight="500">9:41</text>
    <text x="310" y="40" fill="rgba(255,255,255,0.7)" font-family="-apple-system,system-ui,sans-serif" font-size="13" font-weight="500" text-anchor="end">100%</text>
    <rect x="120" y="12" width="120" height="28" rx="14" fill="#000"/>

    <!-- Header -->
    <text x="30" y="86" fill="#f5f5f7" font-family="-apple-system,system-ui,sans-serif" font-size="20" font-weight="600" letter-spacing="-0.3">Workspaces</text>
    <rect x="272" y="68" width="58" height="28" rx="14" fill="rgba(88,86,214,0.3)"/>
    <text x="301" y="87" fill="#a78bfa" font-family="-apple-system,system-ui,sans-serif" font-size="12" font-weight="500" text-anchor="middle">+ Neu</text>
    <line x1="30" y1="102" x2="330" y2="102" stroke="rgba(255,255,255,0.06)" stroke-width="1"/>

    <!-- Personal workspace -->
    <text x="30" y="130" fill="rgba(245,245,247,0.4)" font-family="-apple-system,system-ui,sans-serif" font-size="11" font-weight="500" letter-spacing="0.5">PRIVAT</text>

    <rect x="30" y="142" width="300" height="80" rx="12" fill="rgba(88,86,214,0.08)" stroke="rgba(88,86,214,0.2)" stroke-width="1"/>
    <rect x="46" y="158" width="40" height="40" rx="10" fill="rgba(88,86,214,0.2)"/>
    <text x="66" y="183" fill="#a78bfa" font-family="-apple-system,system-ui,sans-serif" font-size="18" font-weight="700" text-anchor="middle">ME</text>
    <text x="100" y="174" fill="rgba(245,245,247,0.9)" font-family="-apple-system,system-ui,sans-serif" font-size="14" font-weight="600">Mein Workspace</text>
    <text x="100" y="194" fill="rgba(245,245,247,0.35)" font-family="-apple-system,system-ui,sans-serif" font-size="11">Rechnungen, Verträge, Notizen</text>
    <text x="100" y="210" fill="rgba(245,245,247,0.25)" font-family="-apple-system,system-ui,sans-serif" font-size="10">142 Dateien, 2.3 GB</text>

    <!-- Client workspaces -->
    <text x="30" y="254" fill="rgba(245,245,247,0.4)" font-family="-apple-system,system-ui,sans-serif" font-size="11" font-weight="500" letter-spacing="0.5">KUNDEN</text>

    <!-- Client A -->
    <rect x="30" y="266" width="300" height="100" rx="12" fill="rgba(52,199,89,0.06)"/>
    <rect x="46" y="282" width="40" height="40" rx="10" fill="rgba(52,199,89,0.15)"/>
    <text x="66" y="307" fill="#34c759" font-family="-apple-system,system-ui,sans-serif" font-size="16" font-weight="700" text-anchor="middle">FT</text>
    <text x="100" y="298" fill="rgba(245,245,247,0.9)" font-family="-apple-system,system-ui,sans-serif" font-size="14" font-weight="600">FinTech AG</text>
    <text x="100" y="316" fill="rgba(245,245,247,0.35)" font-family="-apple-system,system-ui,sans-serif" font-size="11">Security Audit Q1/2026</text>
    <text x="100" y="332" fill="rgba(245,245,247,0.25)" font-family="-apple-system,system-ui,sans-serif" font-size="10">3 Mitglieder, 87 Dateien</text>
    <!-- Status badges -->
    <rect x="46" y="344" width="56" height="16" rx="8" fill="rgba(52,199,89,0.12)"/>
    <text x="74" y="355" fill="#34c759" font-family="-apple-system,system-ui,sans-serif" font-size="9" font-weight="500" text-anchor="middle">Aktiv</text>
    <rect x="110" y="344" width="76" height="16" rx="8" fill="rgba(255,255,255,0.04)"/>
    <text x="148" y="355" fill="rgba(245,245,247,0.3)" font-family="-apple-system,system-ui,sans-serif" font-size="9" text-anchor="middle">Endet 30.04.</text>

    <!-- Client B -->
    <rect x="30" y="378" width="300" height="100" rx="12" fill="rgba(255,149,0,0.06)"/>
    <rect x="46" y="394" width="40" height="40" rx="10" fill="rgba(255,149,0,0.15)"/>
    <text x="66" y="419" fill="#ff9500" font-family="-apple-system,system-ui,sans-serif" font-size="16" font-weight="700" text-anchor="middle">MK</text>
    <text x="100" y="410" fill="rgba(245,245,247,0.9)" font-family="-apple-system,system-ui,sans-serif" font-size="14" font-weight="600">MediaKraft GmbH</text>
    <text x="100" y="428" fill="rgba(245,245,247,0.35)" font-family="-apple-system,system-ui,sans-serif" font-size="11">DSGVO-Beratung</text>
    <text x="100" y="444" fill="rgba(245,245,247,0.25)" font-family="-apple-system,system-ui,sans-serif" font-size="10">5 Mitglieder, 234 Dateien</text>
    <rect x="46" y="456" width="56" height="16" rx="8" fill="rgba(52,199,89,0.12)"/>
    <text x="74" y="467" fill="#34c759" font-family="-apple-system,system-ui,sans-serif" font-size="9" font-weight="500" text-anchor="middle">Aktiv</text>
    <rect x="110" y="456" width="76" height="16" rx="8" fill="rgba(255,255,255,0.04)"/>
    <text x="148" y="467" fill="rgba(245,245,247,0.3)" font-family="-apple-system,system-ui,sans-serif" font-size="9" text-anchor="middle">Endet 15.06.</text>

    <!-- Client C (archived) -->
    <rect x="30" y="490" width="300" height="80" rx="12" fill="rgba(255,255,255,0.03)"/>
    <rect x="46" y="506" width="40" height="40" rx="10" fill="rgba(255,255,255,0.06)"/>
    <text x="66" y="531" fill="rgba(245,245,247,0.3)" font-family="-apple-system,system-ui,sans-serif" font-size="16" font-weight="700" text-anchor="middle">SH</text>
    <text x="100" y="522" fill="rgba(245,245,247,0.5)" font-family="-apple-system,system-ui,sans-serif" font-size="14" font-weight="600">StartHub e.V.</text>
    <text x="100" y="540" fill="rgba(245,245,247,0.25)" font-family="-apple-system,system-ui,sans-serif" font-size="11">Website-Relaunch</text>
    <text x="100" y="556" fill="rgba(245,245,247,0.15)" font-family="-apple-system,system-ui,sans-serif" font-size="10">Abgeschlossen, 56 Dateien</text>
    <rect x="46" y="558" width="72" height="16" rx="8" fill="rgba(255,255,255,0.04)"/>
    <text x="82" y="569" fill="rgba(245,245,247,0.25)" font-family="-apple-system,system-ui,sans-serif" font-size="9" text-anchor="middle">Archiviert</text>

    <!-- Isolation notice -->
    <rect x="30" y="590" width="300" height="44" rx="10" fill="rgba(52,199,89,0.06)"/>
    <rect x="42" y="604" width="8" height="12" rx="2" fill="#34c759"/>
    <rect x="43" y="601" width="6" height="5" rx="2.5" fill="none" stroke="#34c759" stroke-width="1"/>
    <text x="60" y="614" fill="rgba(52,199,89,0.7)" font-family="-apple-system,system-ui,sans-serif" font-size="11" font-weight="500">Daten streng isoliert</text>
    <text x="60" y="628" fill="rgba(52,199,89,0.4)" font-family="-apple-system,system-ui,sans-serif" font-size="10">Kunden sehen nur ihren Workspace</text>

    <!-- Bottom tab bar -->
    <rect x="12" y="676" width="336" height="32" fill="rgba(0,0,0,0.4)"/>
    <rect x="60" y="684" width="24" height="4" rx="2" fill="rgba(255,255,255,0.15)"/>
    <rect x="120" y="684" width="24" height="4" rx="2" fill="rgba(255,255,255,0.15)"/>
    <rect x="168" y="684" width="24" height="4" rx="2" fill="rgba(88,86,214,0.6)"/>
    <rect x="216" y="684" width="24" height="4" rx="2" fill="rgba(255,255,255,0.15)"/>
    <rect x="276" y="684" width="24" height="4" rx="2" fill="rgba(255,255,255,0.15)"/>
  </g>
</svg>
