<svg width="800" height="520" viewBox="0 0 800 520" xmlns="http://www.w3.org/2000/svg">
  <defs>
    <linearGradient id="winTitleBar" x1="0" y1="0" x2="0" y2="1">
      <stop offset="0%" stop-color="#f0f0f0"/>
      <stop offset="100%" stop-color="#e5e5e5"/>
    </linearGradient>
  </defs>
  <rect width="800" height="520" rx="8" fill="#fff" stroke="#d1d1d6" stroke-width="1"/>
  <rect width="800" height="32" rx="8" fill="url(#winTitleBar)"/>
  <rect y="20" width="800" height="12" fill="url(#winTitleBar)"/>
  <text x="16" y="21" fill="#1d1d1f" font-family="-apple-system,system-ui,sans-serif" font-size="12" font-weight="500">Superheld</text>
  <rect x="710" y="8" width="30" height="16" rx="2" fill="transparent"/>
  <line x1="718" y1="16" x2="732" y2="16" stroke="#666" stroke-width="1.5"/>
  <rect x="740" y="8" width="30" height="16" rx="2" fill="transparent"/>
  <rect x="748" y="12" width="12" height="10" rx="1" fill="none" stroke="#666" stroke-width="1.5"/>
  <rect x="770" y="8" width="30" height="16" rx="2" fill="transparent"/>
  <line x1="778" y1="12" x2="790" y2="22" stroke="#666" stroke-width="1.5"/>
  <line x1="790" y1="12" x2="778" y2="22" stroke="#666" stroke-width="1.5"/>
  <rect x="0" y="32" width="180" height="488" fill="#fafafa"/>
  <line x1="180" y1="32" x2="180" y2="520" stroke="rgba(0,0,0,0.06)" stroke-width="1"/>
  <rect x="8" y="44" width="164" height="30" rx="6" fill="rgba(0,122,255,0.08)"/>
  <text x="32" y="64" fill="#007aff" font-family="-apple-system,system-ui,sans-serif" font-size="12" font-weight="600">Übersicht</text>
  <circle cx="20" cy="59" r="4" fill="#007aff"/>
  <text x="32" y="96" fill="#333" font-family="-apple-system,system-ui,sans-serif" font-size="12">Webschutz</text>
  <circle cx="20" cy="92" r="4" fill="rgba(0,0,0,0.15)"/>
  <text x="32" y="122" fill="#333" font-family="-apple-system,system-ui,sans-serif" font-size="12">VPN</text>
  <circle cx="20" cy="118" r="4" fill="rgba(0,0,0,0.15)"/>
  <text x="32" y="148" fill="#333" font-family="-apple-system,system-ui,sans-serif" font-size="12">Geräte</text>
  <circle cx="20" cy="144" r="4" fill="rgba(0,0,0,0.15)"/>
  <text x="32" y="174" fill="#333" font-family="-apple-system,system-ui,sans-serif" font-size="12">Jugendschutz</text>
  <circle cx="20" cy="170" r="4" fill="rgba(0,0,0,0.15)"/>
  <text x="32" y="200" fill="#333" font-family="-apple-system,system-ui,sans-serif" font-size="12">Protokoll</text>
  <circle cx="20" cy="196" r="4" fill="rgba(0,0,0,0.15)"/>
  <text x="32" y="226" fill="#333" font-family="-apple-system,system-ui,sans-serif" font-size="12">Einstellungen</text>
  <circle cx="20" cy="222" r="4" fill="rgba(0,0,0,0.15)"/>
  <rect x="8" y="472" width="164" height="32" rx="6" fill="rgba(52,199,89,0.06)"/>
  <circle cx="22" cy="488" r="5" fill="#34c759"/>
  <text x="34" y="492" fill="#34c759" font-family="-apple-system,system-ui,sans-serif" font-size="11" font-weight="500">Schutz aktiv</text>
  <rect x="200" y="48" width="280" height="88" rx="10" fill="#f5f5f7"/>
  <text x="218" y="72" fill="rgba(29,29,31,0.4)" font-family="-apple-system,system-ui,sans-serif" font-size="10" font-weight="500" letter-spacing="0.3">BEDROHUNGEN BLOCKIERT</text>
  <text x="218" y="114" fill="#1d1d1f" font-family="-apple-system,system-ui,sans-serif" font-size="30" font-weight="700">12.847</text>
  <text x="340" y="114" fill="#34c759" font-family="-apple-system,system-ui,sans-serif" font-size="12" font-weight="500">+127 heute</text>
  <rect x="500" y="48" width="280" height="88" rx="10" fill="#f5f5f7"/>
  <text x="518" y="72" fill="rgba(29,29,31,0.4)" font-family="-apple-system,system-ui,sans-serif" font-size="10" font-weight="500" letter-spacing="0.3">AKTIVE REGELN</text>
  <text x="518" y="114" fill="#1d1d1f" font-family="-apple-system,system-ui,sans-serif" font-size="30" font-weight="700">24</text>
  <text x="560" y="114" fill="rgba(29,29,31,0.4)" font-family="-apple-system,system-ui,sans-serif" font-size="12">Regeln aktiv</text>
  <rect x="200" y="152" width="580" height="180" rx="10" fill="#f5f5f7"/>
  <text x="218" y="178" fill="#1d1d1f" font-family="-apple-system,system-ui,sans-serif" font-size="13" font-weight="600">Letzte Aktivität</text>
  <circle cx="218" cy="208" r="5" fill="#34c759"/>
  <text x="232" y="212" fill="#333" font-family="-apple-system,system-ui,sans-serif" font-size="12">Tracker blockiert: analytics.tracking.io</text>
  <text x="680" y="212" fill="rgba(0,0,0,0.35)" font-family="-apple-system,system-ui,sans-serif" font-size="11" text-anchor="end">vor 2 Min</text>
  <line x1="218" y1="224" x2="762" y2="224" stroke="rgba(0,0,0,0.04)" stroke-width="1"/>
  <circle cx="218" cy="244" r="5" fill="#ff9500"/>
  <text x="232" y="248" fill="#333" font-family="-apple-system,system-ui,sans-serif" font-size="12">Warnung: Verdächtige Domain erkannt</text>
  <text x="680" y="248" fill="rgba(0,0,0,0.35)" font-family="-apple-system,system-ui,sans-serif" font-size="11" text-anchor="end">vor 15 Min</text>
  <line x1="218" y1="260" x2="762" y2="260" stroke="rgba(0,0,0,0.04)" stroke-width="1"/>
  <circle cx="218" cy="280" r="5" fill="#5856d6"/>
  <text x="232" y="284" fill="#333" font-family="-apple-system,system-ui,sans-serif" font-size="12">VPN-Verbindung hergestellt</text>
  <text x="680" y="284" fill="rgba(0,0,0,0.35)" font-family="-apple-system,system-ui,sans-serif" font-size="11" text-anchor="end">vor 1 Std</text>
  <line x1="218" y1="296" x2="762" y2="296" stroke="rgba(0,0,0,0.04)" stroke-width="1"/>
  <circle cx="218" cy="316" r="5" fill="#34c759"/>
  <text x="232" y="320" fill="#333" font-family="-apple-system,system-ui,sans-serif" font-size="12">Kinderprofil "Max": 45 Min Bildschirmzeit übrig</text>
  <text x="680" y="320" fill="rgba(0,0,0,0.35)" font-family="-apple-system,system-ui,sans-serif" font-size="11" text-anchor="end">vor 2 Std</text>
  <rect x="200" y="348" width="580" height="160" rx="10" fill="#f5f5f7"/>
  <text x="218" y="374" fill="#1d1d1f" font-family="-apple-system,system-ui,sans-serif" font-size="13" font-weight="600">Geräte (4 online)</text>
  <circle cx="218" cy="402" r="5" fill="#34c759"/>
  <text x="232" y="406" fill="#333" font-family="-apple-system,system-ui,sans-serif" font-size="12">Windows Desktop</text>
  <text x="520" y="406" fill="rgba(0,0,0,0.35)" font-family="-apple-system,system-ui,sans-serif" font-size="11">Win 11 23H2</text>
  <text x="690" y="406" fill="#34c759" font-family="-apple-system,system-ui,sans-serif" font-size="11" font-weight="500">Sicher</text>
  <circle cx="218" cy="428" r="5" fill="#34c759"/>
  <text x="232" y="432" fill="#333" font-family="-apple-system,system-ui,sans-serif" font-size="12">iPad Air</text>
  <text x="520" y="432" fill="rgba(0,0,0,0.35)" font-family="-apple-system,system-ui,sans-serif" font-size="11">iPadOS 18.2</text>
  <text x="690" y="432" fill="#34c759" font-family="-apple-system,system-ui,sans-serif" font-size="11" font-weight="500">Sicher</text>
  <circle cx="218" cy="454" r="5" fill="#34c759"/>
  <text x="232" y="458" fill="#333" font-family="-apple-system,system-ui,sans-serif" font-size="12">Pixel 8</text>
  <text x="520" y="458" fill="rgba(0,0,0,0.35)" font-family="-apple-system,system-ui,sans-serif" font-size="11">Android 15</text>
  <text x="690" y="458" fill="#34c759" font-family="-apple-system,system-ui,sans-serif" font-size="11" font-weight="500">Sicher</text>
  <circle cx="218" cy="480" r="5" fill="rgba(0,0,0,0.2)"/>
  <text x="232" y="484" fill="rgba(0,0,0,0.4)" font-family="-apple-system,system-ui,sans-serif" font-size="12">Linux Server</text>
  <text x="520" y="484" fill="rgba(0,0,0,0.25)" font-family="-apple-system,system-ui,sans-serif" font-size="11">Ubuntu 24.04</text>
  <text x="690" y="484" fill="rgba(0,0,0,0.3)" font-family="-apple-system,system-ui,sans-serif" font-size="11">Offline</text>
</svg>
