<svg width="800" height="520" viewBox="0 0 800 520" xmlns="http://www.w3.org/2000/svg">
  <defs>
    <linearGradient id="macTitleBar3" x1="0" y1="0" x2="0" y2="1">
      <stop offset="0%" stop-color="#e8e8ed"/>
      <stop offset="100%" stop-color="#d5d5da"/>
    </linearGradient>
  </defs>
  <rect width="800" height="520" rx="12" fill="#fff" stroke="#c7c7cc" stroke-width="1"/>
  <rect width="800" height="36" rx="12" fill="url(#macTitleBar3)"/>
  <rect y="24" width="800" height="12" fill="url(#macTitleBar3)"/>
  <circle cx="20" cy="18" r="6" fill="#ff5f57"/>
  <circle cx="40" cy="18" r="6" fill="#febc2e"/>
  <circle cx="60" cy="18" r="6" fill="#28c840"/>
  <text x="400" y="23" fill="#1d1d1f" font-family="-apple-system,system-ui,sans-serif" font-size="13" font-weight="500" text-anchor="middle">Superheld — Regeln &amp; Filter</text>

  <!-- Sidebar -->
  <rect x="0" y="36" width="200" height="484" fill="#f5f5f7"/>
  <line x1="200" y1="36" x2="200" y2="520" stroke="rgba(0,0,0,0.08)" stroke-width="1"/>
  <text x="40" y="73" fill="#1d1d1f" font-family="-apple-system,system-ui,sans-serif" font-size="13">Dashboard</text>
  <circle cx="24" cy="68" r="4" fill="rgba(0,0,0,0.2)"/>
  <text x="40" y="103" fill="#1d1d1f" font-family="-apple-system,system-ui,sans-serif" font-size="13">Geräte</text>
  <circle cx="24" cy="98" r="4" fill="rgba(0,0,0,0.2)"/>
  <rect x="12" y="112" width="176" height="32" rx="8" fill="rgba(88,86,214,0.12)"/>
  <text x="40" y="133" fill="#5856d6" font-family="-apple-system,system-ui,sans-serif" font-size="13" font-weight="600">Regeln</text>
  <circle cx="24" cy="128" r="4" fill="#5856d6"/>
  <text x="40" y="163" fill="#1d1d1f" font-family="-apple-system,system-ui,sans-serif" font-size="13">Familie</text>
  <circle cx="24" cy="158" r="4" fill="rgba(0,0,0,0.2)"/>
  <text x="40" y="193" fill="#1d1d1f" font-family="-apple-system,system-ui,sans-serif" font-size="13">Protokoll</text>
  <circle cx="24" cy="188" r="4" fill="rgba(0,0,0,0.2)"/>
  <text x="40" y="223" fill="#1d1d1f" font-family="-apple-system,system-ui,sans-serif" font-size="13">Einstellungen</text>
  <circle cx="24" cy="218" r="4" fill="rgba(0,0,0,0.2)"/>

  <!-- Rule categories sidebar -->
  <text x="20" y="268" fill="rgba(29,29,31,0.4)" font-family="-apple-system,system-ui,sans-serif" font-size="10" font-weight="500" letter-spacing="0.5">KATEGORIEN</text>
  <rect x="16" y="280" width="168" height="26" rx="6" fill="rgba(255,59,48,0.08)"/>
  <text x="32" y="298" fill="#ff3b30" font-family="-apple-system,system-ui,sans-serif" font-size="11" font-weight="500">Malware &amp; Phishing</text>
  <rect x="16" y="312" width="168" height="26" rx="6" fill="rgba(245,158,11,0.08)"/>
  <text x="32" y="330" fill="#f59e0b" font-family="-apple-system,system-ui,sans-serif" font-size="11" font-weight="500">Jugendschutz</text>
  <rect x="16" y="344" width="168" height="26" rx="6" fill="rgba(88,86,214,0.08)"/>
  <text x="32" y="362" fill="#5856d6" font-family="-apple-system,system-ui,sans-serif" font-size="11" font-weight="500">Tracker &amp; Werbung</text>
  <rect x="16" y="376" width="168" height="26" rx="6" fill="rgba(52,199,89,0.08)"/>
  <text x="32" y="394" fill="#34c759" font-family="-apple-system,system-ui,sans-serif" font-size="11" font-weight="500">Benutzerdefiniert</text>

  <rect x="12" y="470" width="176" height="36" rx="8" fill="rgba(52,199,89,0.08)"/>
  <circle cx="28" cy="488" r="5" fill="#34c759"/>
  <text x="40" y="492" fill="#34c759" font-family="-apple-system,system-ui,sans-serif" font-size="12" font-weight="500">12 Regeln aktiv</text>

  <!-- Main content -->
  <!-- Header row -->
  <text x="230" y="62" fill="#1d1d1f" font-family="-apple-system,system-ui,sans-serif" font-size="16" font-weight="600">Filterregeln</text>
  <rect x="680" y="48" width="90" height="28" rx="14" fill="#5856d6"/>
  <text x="725" y="67" fill="#fff" font-family="-apple-system,system-ui,sans-serif" font-size="12" font-weight="500" text-anchor="middle">+ Neue Regel</text>

  <!-- Rules table header -->
  <rect x="220" y="82" width="560" height="30" rx="0" fill="rgba(0,0,0,0.02)"/>
  <text x="240" y="102" fill="rgba(29,29,31,0.4)" font-family="-apple-system,system-ui,sans-serif" font-size="11" font-weight="500">REGEL</text>
  <text x="460" y="102" fill="rgba(29,29,31,0.4)" font-family="-apple-system,system-ui,sans-serif" font-size="11" font-weight="500">KATEGORIE</text>
  <text x="580" y="102" fill="rgba(29,29,31,0.4)" font-family="-apple-system,system-ui,sans-serif" font-size="11" font-weight="500">ANGEWANDT AUF</text>
  <text x="720" y="102" fill="rgba(29,29,31,0.4)" font-family="-apple-system,system-ui,sans-serif" font-size="11" font-weight="500">STATUS</text>

  <!-- Rule 1 -->
  <line x1="220" y1="112" x2="780" y2="112" stroke="rgba(0,0,0,0.04)" stroke-width="1"/>
  <text x="240" y="136" fill="#1d1d1f" font-family="-apple-system,system-ui,sans-serif" font-size="13" font-weight="500">Bekannte Malware-Domains</text>
  <text x="240" y="152" fill="rgba(29,29,31,0.4)" font-family="-apple-system,system-ui,sans-serif" font-size="11">48.000+ Domains blockiert</text>
  <rect x="460" y="130" width="80" height="20" rx="10" fill="rgba(255,59,48,0.08)"/>
  <text x="500" y="144" fill="#ff3b30" font-family="-apple-system,system-ui,sans-serif" font-size="10" font-weight="500" text-anchor="middle">Malware</text>
  <text x="580" y="144" fill="rgba(29,29,31,0.6)" font-family="-apple-system,system-ui,sans-serif" font-size="12">Alle Geräte</text>
  <rect x="710" y="132" width="48" height="22" rx="11" fill="rgba(52,199,89,0.12)"/>
  <text x="734" y="147" fill="#34c759" font-family="-apple-system,system-ui,sans-serif" font-size="10" font-weight="500" text-anchor="middle">Aktiv</text>

  <!-- Rule 2 -->
  <line x1="220" y1="164" x2="780" y2="164" stroke="rgba(0,0,0,0.04)" stroke-width="1"/>
  <text x="240" y="188" fill="#1d1d1f" font-family="-apple-system,system-ui,sans-serif" font-size="13" font-weight="500">Phishing-Schutz</text>
  <text x="240" y="204" fill="rgba(29,29,31,0.4)" font-family="-apple-system,system-ui,sans-serif" font-size="11">Echtzeit-Erkennung aktiv</text>
  <rect x="460" y="182" width="80" height="20" rx="10" fill="rgba(255,59,48,0.08)"/>
  <text x="500" y="196" fill="#ff3b30" font-family="-apple-system,system-ui,sans-serif" font-size="10" font-weight="500" text-anchor="middle">Phishing</text>
  <text x="580" y="196" fill="rgba(29,29,31,0.6)" font-family="-apple-system,system-ui,sans-serif" font-size="12">Alle Geräte</text>
  <rect x="710" y="184" width="48" height="22" rx="11" fill="rgba(52,199,89,0.12)"/>
  <text x="734" y="199" fill="#34c759" font-family="-apple-system,system-ui,sans-serif" font-size="10" font-weight="500" text-anchor="middle">Aktiv</text>

  <!-- Rule 3 -->
  <line x1="220" y1="216" x2="780" y2="216" stroke="rgba(0,0,0,0.04)" stroke-width="1"/>
  <text x="240" y="240" fill="#1d1d1f" font-family="-apple-system,system-ui,sans-serif" font-size="13" font-weight="500">Jugendschutz (USK 12)</text>
  <text x="240" y="256" fill="rgba(29,29,31,0.4)" font-family="-apple-system,system-ui,sans-serif" font-size="11">Altersbeschränkte Inhalte blockiert</text>
  <rect x="460" y="234" width="80" height="20" rx="10" fill="rgba(245,158,11,0.08)"/>
  <text x="500" y="248" fill="#f59e0b" font-family="-apple-system,system-ui,sans-serif" font-size="10" font-weight="500" text-anchor="middle">Jugend</text>
  <text x="580" y="248" fill="rgba(29,29,31,0.6)" font-family="-apple-system,system-ui,sans-serif" font-size="12">Lena, Max</text>
  <rect x="710" y="236" width="48" height="22" rx="11" fill="rgba(52,199,89,0.12)"/>
  <text x="734" y="251" fill="#34c759" font-family="-apple-system,system-ui,sans-serif" font-size="10" font-weight="500" text-anchor="middle">Aktiv</text>

  <!-- Rule 4 -->
  <line x1="220" y1="268" x2="780" y2="268" stroke="rgba(0,0,0,0.04)" stroke-width="1"/>
  <text x="240" y="292" fill="#1d1d1f" font-family="-apple-system,system-ui,sans-serif" font-size="13" font-weight="500">Werbe-Tracker blockieren</text>
  <text x="240" y="308" fill="rgba(29,29,31,0.4)" font-family="-apple-system,system-ui,sans-serif" font-size="11">Google, Meta, Amazon Tracking</text>
  <rect x="460" y="286" width="80" height="20" rx="10" fill="rgba(88,86,214,0.08)"/>
  <text x="500" y="300" fill="#5856d6" font-family="-apple-system,system-ui,sans-serif" font-size="10" font-weight="500" text-anchor="middle">Tracker</text>
  <text x="580" y="300" fill="rgba(29,29,31,0.6)" font-family="-apple-system,system-ui,sans-serif" font-size="12">Alle Geräte</text>
  <rect x="710" y="288" width="48" height="22" rx="11" fill="rgba(52,199,89,0.12)"/>
  <text x="734" y="303" fill="#34c759" font-family="-apple-system,system-ui,sans-serif" font-size="10" font-weight="500" text-anchor="middle">Aktiv</text>

  <!-- Rule 5 -->
  <line x1="220" y1="320" x2="780" y2="320" stroke="rgba(0,0,0,0.04)" stroke-width="1"/>
  <text x="240" y="344" fill="#1d1d1f" font-family="-apple-system,system-ui,sans-serif" font-size="13" font-weight="500">Social Media Zeitlimit</text>
  <text x="240" y="360" fill="rgba(29,29,31,0.4)" font-family="-apple-system,system-ui,sans-serif" font-size="11">Max. 2h/Tag für TikTok, Instagram, YouTube</text>
  <rect x="460" y="338" width="80" height="20" rx="10" fill="rgba(245,158,11,0.08)"/>
  <text x="500" y="352" fill="#f59e0b" font-family="-apple-system,system-ui,sans-serif" font-size="10" font-weight="500" text-anchor="middle">Zeitlimit</text>
  <text x="580" y="352" fill="rgba(29,29,31,0.6)" font-family="-apple-system,system-ui,sans-serif" font-size="12">Lena, Max</text>
  <rect x="710" y="340" width="48" height="22" rx="11" fill="rgba(52,199,89,0.12)"/>
  <text x="734" y="355" fill="#34c759" font-family="-apple-system,system-ui,sans-serif" font-size="10" font-weight="500" text-anchor="middle">Aktiv</text>

  <!-- Rule 6 -->
  <line x1="220" y1="372" x2="780" y2="372" stroke="rgba(0,0,0,0.04)" stroke-width="1"/>
  <text x="240" y="396" fill="#1d1d1f" font-family="-apple-system,system-ui,sans-serif" font-size="13" font-weight="500">Schul-Ausnahme</text>
  <text x="240" y="412" fill="rgba(29,29,31,0.4)" font-family="-apple-system,system-ui,sans-serif" font-size="11">lernplattform.at, anton.app erlaubt</text>
  <rect x="460" y="390" width="80" height="20" rx="10" fill="rgba(52,199,89,0.08)"/>
  <text x="500" y="404" fill="#34c759" font-family="-apple-system,system-ui,sans-serif" font-size="10" font-weight="500" text-anchor="middle">Custom</text>
  <text x="580" y="404" fill="rgba(29,29,31,0.6)" font-family="-apple-system,system-ui,sans-serif" font-size="12">Lena, Max</text>
  <rect x="710" y="392" width="48" height="22" rx="11" fill="rgba(52,199,89,0.12)"/>
  <text x="734" y="407" fill="#34c759" font-family="-apple-system,system-ui,sans-serif" font-size="10" font-weight="500" text-anchor="middle">Aktiv</text>

  <!-- Rule 7 -->
  <line x1="220" y1="424" x2="780" y2="424" stroke="rgba(0,0,0,0.04)" stroke-width="1"/>
  <text x="240" y="448" fill="#1d1d1f" font-family="-apple-system,system-ui,sans-serif" font-size="13" font-weight="500">Nachtruhe</text>
  <text x="240" y="464" fill="rgba(29,29,31,0.4)" font-family="-apple-system,system-ui,sans-serif" font-size="11">Internet aus: 21:00 – 07:00</text>
  <rect x="460" y="442" width="80" height="20" rx="10" fill="rgba(245,158,11,0.08)"/>
  <text x="500" y="456" fill="#f59e0b" font-family="-apple-system,system-ui,sans-serif" font-size="10" font-weight="500" text-anchor="middle">Zeitlimit</text>
  <text x="580" y="456" fill="rgba(29,29,31,0.6)" font-family="-apple-system,system-ui,sans-serif" font-size="12">Max</text>
  <rect x="710" y="444" width="48" height="22" rx="11" fill="rgba(29,29,31,0.06)"/>
  <text x="734" y="459" fill="rgba(29,29,31,0.4)" font-family="-apple-system,system-ui,sans-serif" font-size="10" font-weight="500" text-anchor="middle">Inaktiv</text>

  <!-- Bottom stats -->
  <line x1="220" y1="476" x2="780" y2="476" stroke="rgba(0,0,0,0.04)" stroke-width="1"/>
  <text x="240" y="500" fill="rgba(29,29,31,0.4)" font-family="-apple-system,system-ui,sans-serif" font-size="12">Zeige 7 von 12 Regeln</text>
  <text x="760" y="500" fill="#5856d6" font-family="-apple-system,system-ui,sans-serif" font-size="12" font-weight="500" text-anchor="end">Alle anzeigen</text>
</svg>
